<?xml version="1.0" encoding="UTF-8"?>
<svg version="1.1" xmlns="http://www.w3.org/2000/svg" width="512" height="512">
<path d="M0 0 C1.01790619 0.00215515 2.03581238 0.0043103 3.08456421 0.00653076 C17.69363523 0.05620146 32.02575853 0.30709809 46.375 3.3125 C47.34985352 3.51117676 48.32470703 3.70985352 49.32910156 3.91455078 C97.7109774 14.03517194 141.69928269 35.9516877 177.375 70.3125 C178.3640332 71.26068604 178.3640332 71.26068604 179.37304688 72.22802734 C188.86130305 81.37247479 197.6012044 90.66984009 205.375 101.3125 C206.23306152 102.46355017 207.09113451 103.61459177 207.94921875 104.765625 C213.98736829 112.95680614 219.34595521 121.47054105 224.375 130.3125 C224.73948242 130.94430176 225.10396484 131.57610352 225.47949219 132.22705078 C247.08534998 169.97532572 256.85198095 212.74189997 256.6875 255.9375 C256.68534485 256.95540619 256.6831897 257.97331238 256.68096924 259.02206421 C256.63129854 273.63113523 256.38040191 287.96325853 253.375 302.3125 C253.07698486 303.77478027 253.07698486 303.77478027 252.77294922 305.26660156 C242.65232806 353.6484774 220.7358123 397.63678269 186.375 433.3125 C185.74287598 433.97185547 185.11075195 434.63121094 184.45947266 435.31054688 C175.31502521 444.79880305 166.01765991 453.5387044 155.375 461.3125 C154.22394983 462.17056152 153.07290823 463.02863451 151.921875 463.88671875 C143.73224019 469.92427396 135.22961724 475.30707302 126.375 480.3125 C125.66778809 480.7146875 124.96057617 481.116875 124.23193359 481.53125 C101.09654164 494.5566741 75.92537591 503.30551461 49.9375 508.625 C49.21860596 508.77235596 48.49971191 508.91971191 47.7590332 509.0715332 C33.08339502 511.86090125 18.55831162 512.66142619 3.64770508 512.62817383 C0.70811513 512.6250221 -2.2304558 512.64854926 -5.16992188 512.67382812 C-18.54306192 512.71848737 -31.43916711 511.51301542 -44.625 509.3125 C-46.33055054 509.03031616 -46.33055054 509.03031616 -48.07055664 508.74243164 C-91.33802759 500.97044532 -132.38793216 480.98345309 -165.625 452.3125 C-166.37007813 451.67828125 -167.11515625 451.0440625 -167.8828125 450.390625 C-181.38779833 438.57948485 -194.05918743 425.82889772 -204.625 411.3125 C-205.48149066 410.16255169 -206.33826433 409.01281411 -207.1953125 407.86328125 C-213.23534209 399.67315742 -218.61867614 391.16870382 -223.625 382.3125 C-224.0271875 381.60528809 -224.429375 380.89807617 -224.84375 380.16943359 C-237.8691741 357.03404164 -246.61801461 331.86287591 -251.9375 305.875 C-252.08485596 305.15610596 -252.23221191 304.43721191 -252.3840332 303.6965332 C-255.35789088 288.05024391 -255.99800362 272.57681954 -255.9375 256.6875 C-255.93534485 255.66959381 -255.9331897 254.65168762 -255.93096924 253.60293579 C-255.88129854 238.99386477 -255.63040191 224.66174147 -252.625 210.3125 C-252.42632324 209.33764648 -252.22764648 208.36279297 -252.02294922 207.35839844 C-241.90232806 158.9765226 -219.9858123 114.98821731 -185.625 79.3125 C-184.99287598 78.65314453 -184.36075195 77.99378906 -183.70947266 77.31445312 C-174.56502521 67.82619695 -165.26765991 59.0862956 -154.625 51.3125 C-153.47394983 50.45443848 -152.32290823 49.59636549 -151.171875 48.73828125 C-142.98224019 42.70072604 -134.47961724 37.31792698 -125.625 32.3125 C-124.91778809 31.9103125 -124.21057617 31.508125 -123.48193359 31.09375 C-100.34654164 18.0683259 -75.17537591 9.31948539 -49.1875 4 C-48.46860596 3.85264404 -47.74971191 3.70528809 -47.0090332 3.5534668 C-31.36274391 0.57960912 -15.88931954 -0.06050362 0 0 Z " fill="#FEB603" transform="translate(255.625,-0.3125)"/>
<path d="M0 0 C0.76718857 -0.00988449 1.53437714 -0.01976898 2.32481384 -0.029953 C34.97238602 -0.36349672 63.8155139 4.24318532 92.75 20.23828125 C93.81347656 20.81320313 94.87695312 21.388125 95.97265625 21.98046875 C109.37186357 29.48402485 121.0544938 39.26853131 131.75 50.23828125 C132.38035156 50.82351562 133.01070313 51.40875 133.66015625 52.01171875 C159.2405309 76.28374972 177.82788006 116.0468789 178.92700195 151.25390625 C178.9530854 152.66527138 178.97327402 154.0767549 178.98828125 155.48828125 C178.99816574 156.25546982 179.00805023 157.02265839 179.01823425 157.81309509 C179.35177797 190.46066727 174.74509593 219.30379515 158.75 248.23828125 C158.17507813 249.30175781 157.60015625 250.36523438 157.0078125 251.4609375 C149.5042564 264.86014482 139.71974994 276.54277505 128.75 287.23828125 C128.16476562 287.86863281 127.57953125 288.49898438 126.9765625 289.1484375 C111.04000193 305.94403201 90.13481191 317.02579066 68.75 325.23828125 C67.53183594 325.72167969 66.31367188 326.20507812 65.05859375 326.703125 C47.29572431 333.23271611 29.01274456 334.61424906 10.25 334.67578125 C9.45061005 334.68195465 8.65122009 334.68812805 7.8276062 334.69448853 C-3.21032459 334.74933873 -13.48287583 333.6473041 -24.25 331.23828125 C-25.49064209 330.97881714 -25.49064209 330.97881714 -26.75634766 330.71411133 C-54.13206586 324.87329925 -79.47078538 310.73148918 -100.25 292.23828125 C-101.53934393 291.17296381 -102.83054421 290.10988145 -104.125 289.05078125 C-107.90407746 285.78913249 -111.04405878 282.05180004 -114.25 278.23828125 C-115.013125 277.37460937 -115.77625 276.5109375 -116.5625 275.62109375 C-135.20750648 254.12107065 -147.62369602 227.06349804 -153.25 199.23828125 C-153.51598999 198.02712646 -153.51598999 198.02712646 -153.78735352 196.79150391 C-155.53114625 187.91810552 -155.58830116 179.12942299 -155.56567383 170.12207031 C-155.56252224 167.5067335 -155.58602135 164.89254097 -155.61132812 162.27734375 C-155.65140586 151.55272035 -154.64093217 141.70131174 -152.25 131.23828125 C-151.95614055 129.87963949 -151.66342423 128.52075 -151.37182617 127.16162109 C-144.38181541 95.43561751 -126.91497386 68.90325511 -104.25 46.23828125 C-103.68539062 45.62726563 -103.12078125 45.01625 -102.5390625 44.38671875 C-77.64820564 17.85984312 -36.00364321 0.38278779 0 0 Z " fill="#FECB28" transform="translate(244.25,88.76171875)"/>
<path d="M0 0 C2.47848012 2.26559723 4.90981378 4.57662178 7.33886719 6.89526367 C8.19222656 7.69577148 9.04558594 8.4962793 9.92480469 9.32104492 C16.80993532 15.95639952 22.62379696 23.25743096 28.33886719 30.89526367 C28.96535156 31.72670898 29.59183594 32.5581543 30.23730469 33.41479492 C59.55426856 73.81164421 73.40936974 126.1517883 66.02246094 175.71166992 C65.79685024 177.10656758 65.5688582 178.50108154 65.33886719 179.89526367 C65.21527832 180.69174316 65.09168945 181.48822266 64.96435547 182.30883789 C56.89703718 233.40185374 27.98178098 280.2873653 -13.66113281 310.89526367 C-14.72074219 311.67643555 -15.78035156 312.45760742 -16.87207031 313.26245117 C-34.79365729 326.05094163 -54.58059469 335.58018867 -75.66113281 341.89526367 C-76.83675781 342.25362305 -78.01238281 342.61198242 -79.22363281 342.98120117 C-89.55748215 345.94327437 -100.01359487 347.53268211 -110.66113281 348.89526367 C-111.38727783 348.99242676 -112.11342285 349.08958984 -112.86157227 349.18969727 C-163.65146935 355.50794912 -215.61043356 338.81937149 -255.72973633 307.88769531 C-261.49758129 303.33803299 -266.87681064 298.3909669 -272.17822266 293.31079102 C-273.52028841 292.02970816 -274.88071802 290.7679315 -276.24316406 289.50854492 C-309.900775 257.48215907 -330.87946169 208.0054043 -332.78540039 161.88842773 C-334.15911278 105.86818121 -317.11161338 53.77233618 -278.33300781 12.69604492 C-277.45128906 11.77178711 -276.56957031 10.8475293 -275.66113281 9.89526367 C-274.86191406 9.04319336 -274.06269531 8.19112305 -273.23925781 7.31323242 C-266.60232508 0.42687248 -259.30056084 -5.3884724 -251.66113281 -11.10473633 C-250.8296875 -11.7312207 -249.99824219 -12.35770508 -249.14160156 -13.00317383 C-175.22757099 -66.64436126 -70.10150333 -61.82996985 0 0 Z M-168.66113281 -14.10473633 C-170.02222303 -13.81182505 -171.38338875 -13.51926443 -172.74462891 -13.22705078 C-202.98774242 -6.54730597 -229.55806544 9.7921963 -251.27441406 31.50854492 C-252.66393466 32.89806552 -254.0694492 34.27256868 -255.51269531 35.60620117 C-280.411247 58.96915936 -297.93635159 98.19640152 -299.77558899 131.99879456 C-299.84080961 134.21720273 -299.87736706 136.43381927 -299.89941406 138.65307617 C-299.90929855 139.47021591 -299.91918304 140.28735565 -299.92936707 141.1292572 C-300.24228494 173.70379593 -295.63277579 202.00320302 -279.66113281 230.89526367 C-279.08621094 231.95874023 -278.51128906 233.0222168 -277.91894531 234.11791992 C-270.41538921 247.51712725 -260.63088276 259.19975748 -249.66113281 269.89526367 C-249.07589844 270.52561523 -248.49066406 271.1559668 -247.88769531 271.80541992 C-223.61566434 297.38579457 -183.85253516 315.97314373 -148.64550781 317.07226562 C-147.23414269 317.09834907 -145.82265917 317.11853769 -144.41113281 317.13354492 C-143.64394424 317.14342941 -142.87675568 317.1533139 -142.08631897 317.16349792 C-109.43874679 317.49704165 -80.59561891 312.8903596 -51.66113281 296.89526367 C-50.59765625 296.3203418 -49.53417969 295.74541992 -48.43847656 295.15307617 C-35.03926924 287.64952007 -23.35663901 277.86501362 -12.66113281 266.89526367 C-12.03078125 266.3100293 -11.40042969 265.72479492 -10.75097656 265.12182617 C6.04461795 249.1852656 17.1263766 228.28007558 25.33886719 206.89526367 C26.06396484 205.06801758 26.06396484 205.06801758 26.80371094 203.20385742 C33.33330205 185.44098798 34.71483499 167.15800823 34.77636719 148.39526367 C34.78254059 147.59587372 34.78871399 146.79648376 34.79507446 145.97286987 C34.85002206 134.91534053 33.75156592 124.69538053 31.33886719 113.89526367 C31.04595591 112.53417346 30.75339529 111.17300774 30.46118164 109.81176758 C23.78143683 79.56865406 7.44193456 52.99833104 -14.27441406 31.28198242 C-15.66393466 29.89246183 -17.03843782 28.48694729 -18.37207031 27.04370117 C-33.79392246 10.60820616 -54.90117362 -0.1322103 -75.66113281 -8.10473633 C-77.48837891 -8.82983398 -77.48837891 -8.82983398 -79.35253906 -9.56958008 C-97.1154085 -16.09917119 -115.39838825 -17.48070413 -134.16113281 -17.54223633 C-134.96052277 -17.54840973 -135.75991272 -17.55458313 -136.58352661 -17.5609436 C-147.64105596 -17.6158912 -157.86101595 -16.51743506 -168.66113281 -14.10473633 Z " fill="#F99300" transform="translate(388.6611328125,106.104736328125)"/>
<path d="M0 0 C3.69512355 1.47804942 5.30120383 3.39178604 7.5625 6.625 C8.25859375 7.61371094 8.9546875 8.60242188 9.671875 9.62109375 C10.44884102 10.74675838 11.22483575 11.87309387 12 13 C12.85936181 14.24089455 13.71873732 15.48177961 14.578125 16.72265625 C16.92699899 20.12344868 19.26199245 23.53359093 21.59423828 26.94580078 C23.36790149 29.53760388 25.14942398 32.12394302 26.93115234 34.71020508 C34.32625414 45.44692914 41.66177757 56.22436048 49 67 C53.3853754 66.4196127 57.01171277 65.32321427 61.05859375 63.55078125 C62.82323975 62.78241943 62.82323975 62.78241943 64.62353516 61.99853516 C65.89486614 61.43654463 67.16618752 60.87453237 68.4375 60.3125 C69.75546981 59.73694779 71.07367056 59.16192417 72.39208984 58.58740234 C79.53967533 55.46222574 86.6475101 52.25712855 93.73046875 48.98828125 C95.14979684 48.33612913 96.56914873 47.68402883 97.98852539 47.03198242 C100.71447144 45.77905444 103.4321254 44.51001189 106.14624023 43.23168945 C107.39153116 42.65655868 108.63704374 42.08190751 109.8828125 41.5078125 C110.96965332 40.99879395 112.05649414 40.48977539 113.17626953 39.96533203 C116.06554509 38.97759249 117.2184273 38.87074697 120 40 C121.02539868 43.1572885 120.9597695 45.01860491 119.9609375 48.16796875 C119.71287354 48.96944336 119.46480957 49.77091797 119.20922852 50.59667969 C118.7962854 51.87913574 118.7962854 51.87913574 118.375 53.1875 C117.80812746 55.00896953 117.24172805 56.83058637 116.67578125 58.65234375 C116.24773193 60.01335205 116.24773193 60.01335205 115.81103516 61.40185547 C114.68601713 65.00584158 113.61937039 68.62555625 112.5625 72.25 C112.36430664 72.92562988 112.16611328 73.60125977 111.96191406 74.29736328 C109.26514772 83.49050003 106.5876237 92.68928809 103.90722656 101.88720703 C102.14913605 107.91940671 100.38936198 113.95111541 98.62988281 119.98291016 C96.84309127 126.10862384 95.05708597 132.23456573 93.2722168 138.36083984 C92.68083061 140.38877149 92.08856611 142.41644724 91.49536133 144.44384766 C90.15377815 149.02971999 88.8211146 153.61744337 87.51953125 158.21484375 C87.29281738 159.00769775 87.06610352 159.80055176 86.83251953 160.61743164 C86.41540172 162.07734396 86.00327161 163.5386946 85.59716797 165.00170898 C84.74359172 167.97117667 84.22214995 169.77785005 82 172 C79.23227024 172.25726891 79.23227024 172.25726891 75.62953186 172.26742554 C74.96840423 172.27195665 74.30727659 172.27648776 73.62611479 172.28115618 C71.40049404 172.29386349 69.17511601 172.29217579 66.94946289 172.29052734 C65.3579934 172.29650863 63.76652682 172.30331325 62.17506409 172.31088257 C57.84452525 172.32858984 53.51406539 172.33323991 49.18349385 172.33451414 C45.57248578 172.33641015 41.96149624 172.34376417 38.35049528 172.35085833 C29.8336703 172.36715761 21.31688761 172.37202586 12.80004883 172.37060547 C4.00447589 172.36940341 -4.7908519 172.39051449 -13.58636278 172.4220928 C-21.12949913 172.44821306 -28.6725552 172.45897457 -36.21573645 172.45769465 C-40.72464547 172.45718379 -45.23333673 172.46293508 -49.74220085 172.48405075 C-53.98168131 172.503362 -58.22073468 172.50360683 -62.46022987 172.48901749 C-64.01832068 172.48691944 -65.57643771 172.49168924 -67.13448334 172.5037384 C-69.25767953 172.51909777 -71.37938581 172.50994725 -73.50254822 172.49447632 C-74.69182891 172.49556585 -75.8811096 172.49665539 -77.1064291 172.49777794 C-80 172 -80 172 -81.85158634 170.11710548 C-83.13132287 167.75790573 -83.88625766 165.5786383 -84.578125 162.984375 C-84.84818359 161.9929248 -85.11824219 161.00147461 -85.39648438 159.97998047 C-85.81897461 158.38114014 -85.81897461 158.38114014 -86.25 156.75 C-86.86864464 154.47625011 -87.48846563 152.20281999 -88.109375 149.9296875 C-88.42326172 148.77307617 -88.73714844 147.61646484 -89.06054688 146.42480469 C-90.48669484 141.22573928 -91.98600478 136.04906264 -93.5 130.875 C-93.78625244 129.89442627 -94.07250488 128.91385254 -94.36743164 127.90356445 C-96.42144927 120.89848332 -98.54569961 113.91616132 -100.6875 106.9375 C-102.91377459 99.68093378 -104.99760298 92.42086441 -106.90625 85.07421875 C-108.33972915 79.64687632 -109.92739805 74.26330465 -111.5 68.875 C-111.80228516 67.83641846 -112.10457031 66.79783691 -112.41601562 65.7277832 C-113.69017172 61.37337556 -114.97237444 57.02590086 -116.375 52.7109375 C-116.74625 51.56882813 -117.1175 50.42671875 -117.5 49.25 C-117.8196875 48.30640625 -118.139375 47.3628125 -118.46875 46.390625 C-119.03515236 43.84181438 -118.86491431 42.43541662 -118 40 C-114.73388079 38.89421157 -113.13323824 39.04534236 -110.02368164 40.48779297 C-109.25089371 40.83921356 -108.47810577 41.19063416 -107.68190002 41.55270386 C-106.84972458 41.94523346 -106.01754913 42.33776306 -105.16015625 42.7421875 C-104.2833873 43.14398224 -103.40661835 43.54577698 -102.50328064 43.95974731 C-99.6845165 45.25393797 -96.87336803 46.5637601 -94.0625 47.875 C-90.40957795 49.56430237 -86.75399409 51.24779244 -83.09765625 52.9296875 C-82.1911734 53.34684021 -81.28469055 53.76399292 -80.35073853 54.19378662 C-73.71801233 57.23616012 -67.06185409 60.22019821 -60.37109375 63.1328125 C-59.04707298 63.7179512 -59.04707298 63.7179512 -57.69630432 64.31491089 C-56.87540817 64.66876862 -56.05451202 65.02262634 -55.20874023 65.38720703 C-54.49032455 65.69981476 -53.77190887 66.01242249 -53.03172302 66.33450317 C-50.72277763 67.20751971 -50.72277763 67.20751971 -47 67 C-45.2259737 65.2107582 -45.2259737 65.2107582 -43.71484375 62.75 C-43.10777588 61.84000244 -42.50070801 60.93000488 -41.87524414 59.99243164 C-41.23578857 59.0049292 -40.59633301 58.01742676 -39.9375 57 C-38.58100234 54.95684985 -37.22423009 52.91388199 -35.8671875 50.87109375 C-35.20428711 49.86288574 -34.54138672 48.85467773 -33.85839844 47.81591797 C-31.47170607 44.19950838 -29.02742131 40.62584149 -26.5625 37.0625 C-26.14202393 36.45229004 -25.72154785 35.84208008 -25.28833008 35.21337891 C-24.38414534 33.90138533 -23.47924639 32.58988376 -22.57373047 31.27880859 C-21.40000374 29.57921733 -20.2273199 27.87890577 -19.05517578 26.17822266 C-16.91496309 23.07493898 -14.77041515 19.97468881 -12.625 16.875 C-11.94638916 15.89023682 -11.26777832 14.90547363 -10.56860352 13.89086914 C-7.22831158 9.07466319 -3.85323212 4.4185712 0 0 Z " fill="#F99300" transform="translate(255,171)"/>
<path d="M0 0 C0.77085937 0.04382813 1.54171875 0.08765625 2.3359375 0.1328125 C5.81285574 1.26014094 6.81257133 2.71340918 8.625 5.875 C9.22188444 9.05296449 9.19121225 12.14947591 9.125 15.375 C9.11436523 16.32334717 9.10373047 17.27169434 9.09277344 18.2487793 C7.7873244 69.76031127 -12.01621916 123.18907947 -46.375 161.875 C-47.12265625 162.71933594 -47.8703125 163.56367188 -48.640625 164.43359375 C-50.14812003 166.11798871 -51.6635221 167.79534712 -53.1875 169.46484375 C-55.30766617 171.80081254 -57.3719731 174.17826875 -59.4375 176.5625 C-62.46594317 179.96504498 -65.60792082 183.02759403 -69.09375 185.95703125 C-70.76504997 187.36218242 -72.40707652 188.80235111 -74.03125 190.26171875 C-91.08777008 205.44666516 -111.27388149 217.51425614 -132 227 C-132.62688721 227.29575928 -133.25377441 227.59151855 -133.8996582 227.89624023 C-138.65612112 229.97667631 -142.28573507 230.28576876 -147.375 229.875 C-150.51749107 227.84547452 -152.01245366 226.40544369 -152.88671875 222.71484375 C-153.21220123 218.38231034 -153.21220123 218.38231034 -152.375 215.875 C-147.43592472 210.67729071 -141.13424737 208.23452607 -134.6875 205.3125 C-112.86386771 195.11058249 -94.16483392 181.85326131 -76.80322266 165.24023438 C-75.52737424 164.02065415 -74.23910438 162.8140991 -72.94921875 161.609375 C-66.3499437 155.27969734 -60.85397959 148.16792646 -55.375 140.875 C-54.94010254 140.30088379 -54.50520508 139.72676758 -54.05712891 139.13525391 C-47.30029128 130.16457187 -41.57591473 120.82387623 -36.375 110.875 C-36.01051758 110.18937988 -35.64603516 109.50375977 -35.27050781 108.79736328 C-20.04607891 79.81988674 -12.3197603 47.85161836 -11.18164062 15.25170898 C-11.13072266 14.09872314 -11.07980469 12.9457373 -11.02734375 11.7578125 C-10.99632568 10.74090332 -10.96530762 9.72399414 -10.93334961 8.67626953 C-10.23413497 5.16827272 -8.81556313 3.44506706 -6.375 0.875 C-3.96572489 -0.32963755 -2.66888466 -0.20393471 0 0 Z " fill="#FFCB28" transform="translate(484.375,248.125)"/>
<path d="M0 0 C0.96679688 -0.03738281 1.93359375 -0.07476563 2.9296875 -0.11328125 C9.97567775 -0.20062824 9.97567775 -0.20062824 13.85546875 2.68359375 C16.26057953 6.10033875 16.82332613 8.19541076 16.75 12.375 C13.81329114 17.84335443 13.81329114 17.84335443 10.75 19.375 C8.77330647 19.56329162 6.79132089 19.69715074 4.80859375 19.8046875 C3.59341064 19.87606934 2.37822754 19.94745117 1.1262207 20.02099609 C-0.82344604 20.13435303 -0.82344604 20.13435303 -2.8125 20.25 C-13.84263576 20.94084518 -24.44700715 22.04302865 -35.25 24.375 C-36.71330914 24.66653416 -38.17686015 24.95685637 -39.640625 25.24609375 C-60.65933728 29.51916601 -80.79675523 37.0495619 -99.30541992 47.93701172 C-103.11733999 50.09737184 -105.87979427 50.90810311 -110.25 50.375 C-112.94990662 48.57506226 -114.7918865 47.291227 -116.25 44.375 C-116.95133456 37.2447653 -116.95133456 37.2447653 -114.265625 33.9140625 C-110.61612849 30.84129989 -106.85953057 28.72485939 -102.625 26.5625 C-101.79250732 26.13235596 -100.96001465 25.70221191 -100.10229492 25.2590332 C-86.31142554 18.24503565 -72.15217687 12.5304147 -57.25 8.375 C-55.991875 8.01664063 -54.73375 7.65828125 -53.4375 7.2890625 C-42.53451279 4.3093727 -31.45300677 2.75976882 -20.25 1.375 C-19.51281738 1.27928711 -18.77563477 1.18357422 -18.01611328 1.08496094 C-12.01443511 0.34962501 -6.04368777 0.09008207 0 0 Z " fill="#FFCB28" transform="translate(249.25,18.625)"/>
<path d="M0 0 C2.69567302 1.99534578 4.67380108 3.56917701 5.44360352 6.94580078 C5.61472978 9.30665554 5.64084107 11.63302212 5.625 14 C6.36925947 47.29259453 14.96039886 83.23151995 32.0012207 112.01611328 C33.61858732 115.22870705 33.65997492 117.50213293 33 121 C31.0625 124.4375 31.0625 124.4375 28 127 C24.83425333 127.80145485 22.13021963 127.95943376 19 127 C13.64302595 122.88522283 11.17099232 117.11915757 8.3125 111.125 C7.53628296 109.5021106 7.53628296 109.5021106 6.74438477 107.84643555 C2.6665575 99.02642642 -0.60020224 90.05764364 -3.5625 80.8125 C-3.76805511 80.1746759 -3.97361023 79.53685181 -4.18539429 78.87969971 C-10.99304642 57.55925382 -14.02946132 35.42312271 -14.5 13.0625 C-14.53053467 12.30686768 -14.56106934 11.55123535 -14.5925293 10.77270508 C-14.59482274 6.80366854 -14.14002568 5.17116776 -11.59375 2.05859375 C-7.31822623 -1.33478129 -5.35836246 -1.27147584 0 0 Z " fill="#FFCB28" transform="translate(33,247)"/>
<path d="M0 0 C2.8100346 1.79363911 4.50940468 3.01880935 6 6 C6.25011542 10.88687061 6.07965215 13.59525622 3.06054688 17.5234375 C0.84942506 19.78438258 -1.40404964 21.97474106 -3.73629761 24.11047363 C-6.30443667 26.46793634 -8.80242785 28.89713593 -11.30078125 31.328125 C-11.79703506 31.80924744 -12.29328888 32.29036987 -12.80458069 32.78607178 C-19.36823924 39.22066445 -24.75434585 46.48150355 -30 54 C-30.74765625 55.06734375 -31.4953125 56.1346875 -32.265625 57.234375 C-33.43500696 58.91714416 -34.59312009 60.6079167 -35.73046875 62.3125 C-37 64 -37 64 -39 65 C-43.19741246 65.49428988 -46.78161011 65.70057419 -50.5 63.5625 C-52.69726353 59.80884148 -53.28705846 56.34023698 -53 52 C-51.67001183 48.83570652 -49.74164121 46.31016054 -47.625 43.625 C-47.07134766 42.88604492 -46.51769531 42.14708984 -45.94726562 41.38574219 C-44.32379502 39.23581666 -42.66828683 37.11524218 -41 35 C-40.21367188 33.98164062 -39.42734375 32.96328125 -38.6171875 31.9140625 C-11.55928694 -2.13296366 -11.55928694 -2.13296366 0 0 Z " fill="#FFCB28" transform="translate(108,77)"/>
</svg>
